<svg
width="16"
height="12"
viewBox="0 0 16 12"
fill="none"
xmlns="http://www.w3.org/2000/svg"
>
  <path
    d="M5.93577 0C7.00727 0.000526651 8.05868 0.293932 8.97868 0.84915C9.89868 1.40437 10.653 2.20073 11.1618 3.15391C11.7538 3.09209 12.352 3.15266 12.9201 3.33193C13.4882 3.5112 14.0143 3.80542 14.4663 4.19669C14.9183 4.58796 15.2869 5.06811 15.5496 5.60791C15.8122 6.14771 15.9635 6.73589 15.9942 7.33665C16.0248 7.93742 15.9343 8.53821 15.728 9.10248C15.5217 9.66674 15.204 10.1827 14.7942 10.6189C14.3844 11.0551 13.8911 11.4025 13.3443 11.64C12.7975 11.8774 12.2086 11.9999 11.6135 12H5.93577C4.36151 12 2.85172 11.3679 1.73855 10.2426C0.625374 9.11742 -3.00102e-07 7.5913 -3.00102e-07 6C-3.00102e-07 4.4087 0.625374 2.88258 1.73855 1.75736C2.85172 0.632141 4.36151 0 5.93577 0ZM5.93577 10.4348H11.6135C12.3664 10.4505 13.0946 10.1633 13.638 9.63627C14.1814 9.10925 14.4955 8.38562 14.511 7.62457C14.5266 6.86351 14.2424 6.12737 13.7211 5.57809C13.1997 5.02882 12.4838 4.71139 11.7309 4.69565C11.8249 5.12392 11.872 5.56132 11.8715 6C11.8715 6.20756 11.79 6.40662 11.6448 6.55339C11.4996 6.70016 11.3027 6.78261 11.0973 6.78261C10.892 6.78261 10.695 6.70016 10.5499 6.55339C10.4047 6.40662 10.3231 6.20756 10.3231 6C10.3231 5.12288 10.0658 4.26546 9.58369 3.53617C9.10161 2.80687 8.4164 2.23845 7.61473 1.9028C6.81305 1.56714 5.93091 1.47931 5.07985 1.65043C4.2288 1.82155 3.44705 2.24392 2.83348 2.86414C2.2199 3.48435 1.80205 4.27455 1.63276 5.13482C1.46348 5.99508 1.55036 6.88677 1.88243 7.69712C2.21449 8.50747 2.77682 9.20009 3.49831 9.68739C4.2198 10.1747 5.06805 10.4348 5.93577 10.4348Z"
    fill="#43946C"
  />
</svg>