<svg
  width="3"
  height="14"
  viewBox="0 0 3 14"
  fill="none"
  xmlns="http://www.w3.org/2000/svg"
>
  <path
    d="M8.08342e-07 1.33333C8.08342e-07 1.06963 0.0879743 0.811839 0.252796 0.592574C0.417618 0.373308 0.651886 0.202411 0.925975 0.101495C1.20006 0.000577708 1.50166 -0.0258267 1.79264 0.0256202C2.08361 0.0770672 2.35088 0.204055 2.56066 0.390525C2.77044 0.576995 2.9133 0.814572 2.97118 1.07321C3.02906 1.33185 2.99935 1.59994 2.88582 1.84358C2.77229 2.08721 2.58003 2.29545 2.33336 2.44196C2.08668 2.58847 1.79667 2.66667 1.5 2.66667C1.10218 2.66667 0.720645 2.52619 0.439341 2.27614C0.158036 2.02609 8.08342e-07 1.68696 8.08342e-07 1.33333ZM1.5 5.66667C1.20333 5.66667 0.913319 5.74487 0.666645 5.89137C0.419972 6.03788 0.227713 6.24612 0.114181 6.48976C0.000649921 6.73339 -0.0290551 7.00148 0.0288227 7.26012C0.0867005 7.51876 0.229562 7.75634 0.439341 7.94281C0.649119 8.12928 0.916393 8.25627 1.20736 8.30771C1.49834 8.35916 1.79994 8.33276 2.07403 8.23184C2.34811 8.13092 2.58238 7.96003 2.7472 7.74076C2.91203 7.5215 3 7.26371 3 7C3 6.64638 2.84196 6.30724 2.56066 6.05719C2.27935 5.80714 1.89782 5.66667 1.5 5.66667ZM1.5 11.3333C1.20333 11.3333 0.913319 11.4115 0.666645 11.558C0.419972 11.7045 0.227713 11.9128 0.114181 12.1564C0.000649921 12.4001 -0.0290551 12.6681 0.0288227 12.9268C0.0867005 13.1854 0.229562 13.423 0.439341 13.6095C0.649119 13.7959 0.916393 13.9229 1.20736 13.9744C1.49834 14.0258 1.79994 13.9994 2.07403 13.8985C2.34811 13.7976 2.58238 13.6267 2.7472 13.4074C2.91203 13.1882 3 12.9304 3 12.6667C3 12.313 2.84196 11.9739 2.56066 11.7239C2.27935 11.4738 1.89782 11.3333 1.5 11.3333Z"
    fill="#212936"
  />
</svg>