<svg
  width="16"
  height="12"
  viewBox="0 0 16 12"
  fill="none"
  xmlns="http://www.w3.org/2000/svg"
>
  <path
    d="M14.9818 0H10.3273C9.86341 0.00030084 9.40709 0.103071 9.00037 0.29884C8.59366 0.494609 8.24963 0.777077 8 1.12021C7.75037 0.777077 7.40634 0.494609 6.99963 0.29884C6.59291 0.103071 6.13659 0.00030084 5.67273 0H1.01818C0.748143 0 0.489165 0.0941487 0.298219 0.261734C0.107272 0.42932 0 0.656615 0 0.893617V9.06383C0 9.30083 0.107272 9.52813 0.298219 9.69571C0.489165 9.8633 0.748143 9.95745 1.01818 9.95745H5.67273C6.17423 9.95745 6.65519 10.1323 7.0098 10.4435C7.36442 10.7548 7.56364 11.1769 7.56364 11.617C7.56364 11.7186 7.60961 11.816 7.69144 11.8878C7.77328 11.9597 7.88427 12 8 12C8.11573 12 8.22672 11.9597 8.30856 11.8878C8.39039 11.816 8.43636 11.7186 8.43636 11.617C8.43636 11.1769 8.63558 10.7548 8.9902 10.4435C9.34481 10.1323 9.82577 9.95745 10.3273 9.95745H14.9818C15.2519 9.95745 15.5108 9.8633 15.7018 9.69571C15.8927 9.52813 16 9.30083 16 9.06383V0.893617C16 0.656615 15.8927 0.42932 15.7018 0.261734C15.5108 0.0941487 15.2519 0 14.9818 0ZM5.67273 9.19149H1.01818C0.979605 9.19149 0.942608 9.17804 0.91533 9.1541C0.888052 9.13016 0.872727 9.09769 0.872727 9.06383V0.893617C0.872727 0.85976 0.888052 0.827289 0.91533 0.803348C0.942608 0.779407 0.979605 0.765957 1.01818 0.765957H5.67273C6.17423 0.765957 6.65519 0.940805 7.0098 1.25204C7.36442 1.56327 7.56364 1.98539 7.56364 2.42553V9.84957C7.05215 9.42642 6.37563 9.19098 5.67273 9.19149ZM15.1273 9.06383C15.1273 9.09769 15.1119 9.13016 15.0847 9.1541C15.0574 9.17804 15.0204 9.19149 14.9818 9.19149H10.3273C9.62428 9.19122 8.94778 9.42689 8.43636 9.85021V2.42553C8.43636 1.98539 8.63558 1.56327 8.9902 1.25204C9.34481 0.940805 9.82577 0.765957 10.3273 0.765957H14.9818C15.0204 0.765957 15.0574 0.779407 15.0847 0.803348C15.1119 0.827289 15.1273 0.85976 15.1273 0.893617V9.06383Z"
    fill="#9DA3AE"
  />
</svg>