 <svg
  width="7"
  height="7"
  viewBox="0 0 8 8"
  fill="none"
  xmlns="http://www.w3.org/2000/svg"
>
  <path
    d="M7.33083 6.66712H2.27256L7.80401 1.14234C7.9295 1.01685 8 0.84664 8 0.669166C8 0.491692 7.9295 0.321487 7.80401 0.195994C7.67851 0.0705013 7.50831 0 7.33083 0C7.15336 0 6.98316 0.0705013 6.85766 0.195994L1.33288 5.72744V0.669166C1.33288 0.492416 1.26266 0.322904 1.13768 0.197923C1.0127 0.072941 0.84319 0.0027269 0.666439 0.0027269C0.489689 0.0027269 0.320177 0.072941 0.195196 0.197923C0.0702141 0.322904 0 0.492416 0 0.669166V7.33356C0.00105297 7.42065 0.0191661 7.50669 0.0533151 7.58681C0.120942 7.74965 0.250348 7.87906 0.413192 7.94669C0.493313 7.98083 0.579351 7.99895 0.666439 8H7.33083C7.50758 8 7.6771 7.92979 7.80208 7.80481C7.92706 7.67982 7.99727 7.51031 7.99727 7.33356C7.99727 7.15681 7.92706 6.9873 7.80208 6.86232C7.6771 6.73733 7.50758 6.66712 7.33083 6.66712Z"
    fill="#9DA3AE"
  />
</svg>