<svg
  width="13"
  height="14"
  viewBox="0 0 13 14"
  fill="none"
  xmlns="http://www.w3.org/2000/svg"
>
  <path
    d="M11.375 4.66667H4.0625V3.33333C4.0625 2.77778 4.29948 2.30556 4.77344 1.91667C5.2474 1.52778 5.82292 1.33333 6.5 1.33333C7.17708 1.33333 7.7526 1.52778 8.22656 1.91667C8.70052 2.30556 8.9375 2.77778 8.9375 3.33333H10.5625C10.5625 2.41111 10.1663 1.62511 9.37381 0.975333C8.58135 0.325556 7.62342 0.000444444 6.5 0C5.37604 0 4.41783 0.325111 3.62538 0.975333C2.83292 1.62556 2.43696 2.41156 2.4375 3.33333V4.66667H1.625C1.17813 4.66667 0.795438 4.79733 0.476938 5.05867C0.158438 5.32 -0.0005406 5.63378 1.06661e-06 6V12.6667C1.06661e-06 13.0333 0.15898 13.3473 0.476938 13.6087C0.794896 13.87 1.17758 14.0004 1.625 14H11.375C11.8219 14 12.2043 13.8696 12.5223 13.6087C12.8402 13.3478 12.9995 13.0338 13 12.6667V6C13 5.63333 12.8408 5.31956 12.5223 5.05867C12.2038 4.79778 11.8213 4.66711 11.375 4.66667ZM11.375 12.6667H1.625V6H11.375V12.6667Z"
    fill="#9DA3AE"
  />
</svg>